<?xml version="1.0" encoding="utf-8"?>
<!-- Generator: Adobe Illustrator 27.5.0, SVG Export Plug-In . SVG Version: 6.00 Build 0)  -->
<svg version="1.1" id="Layer_1" xmlns="http://www.w3.org/2000/svg" xmlns:xlink="http://www.w3.org/1999/xlink" x="0px" y="0px"
	 viewBox="0 0 707.24 108.15" style="enable-background:new 0 0 707.24 108.15;" xml:space="preserve">
<style type="text/css">
	.st0{fill:#000;}
</style>
<g>
	<path class="st0" d="M52.65,104.7c-15.15,0-31.05-18.45-31.05-51.75C21.6,27.75,31.2,3,54.6,3c18.15,0,31.95,14.25,33.15,32.7h3
		V2.4h-1.5L82.2,7.05C76.05,3.15,67.65,0,53.7,0C17.55,0,0,27.3,0,54.6c0,26.85,17.1,53.55,50.7,53.55
		c15.75,0,24.3-11.85,28.35-26.55v23.25h19.5v-47.4h-19.5C79.05,89.7,66.15,104.7,52.65,104.7z"/>
	<path class="st0" d="M133.95,47.4h-0.45l-7.2-17.25h-15c1.5,4.95,2.4,10.05,2.4,22.5v52.5h19.8V52.5c3-6.15,9.45-11.1,23.7-11.1
		V27.75C140.7,27.75,136.35,39,133.95,47.4z"/>
	<path class="st0" d="M197.25,27.75c-23.85,0-36.3,19.8-36.3,39.6c0,20.1,12.75,40.2,39.45,40.2c15.9,0,26.25-10.8,29.25-16.35
		l-1.8-1.95c-3.9,3.75-12.6,7.35-21.45,7.35c-12.3,0-25.05-7.05-25.95-30.75h50.7C231.15,43.8,220.65,27.75,197.25,27.75z
		 M180.45,62.85c0-16.2,6-32.1,16.05-32.1c10.95,0,14.55,14.1,14.85,32.1H180.45z"/>
	<path class="st0" d="M277.95,27.75c-23.85,0-36.3,19.8-36.3,39.6c0,20.1,12.75,40.2,39.45,40.2c15.9,0,26.25-10.8,29.25-16.35
		l-1.8-1.95c-3.9,3.75-12.6,7.35-21.45,7.35c-12.3,0-25.05-7.05-25.95-30.75h50.7C311.85,43.8,301.35,27.75,277.95,27.75z
		 M261.15,62.85c0-16.2,6-32.1,16.05-32.1c10.95,0,14.55,14.1,14.85,32.1H261.15z"/>
	<path class="st0" d="M368.7,27.75C354,27.75,349.95,36,347.25,42h-0.45l-7.2-11.85h-15c1.5,4.95,2.4,10.05,2.4,22.5v52.5h19.8
		v-55.5c2.4-7.05,6.6-15.6,13.95-15.6C370.65,34.05,375,44.1,375,57v48.15h19.8v-48.6C394.8,39.45,387,27.75,368.7,27.75z"/>
	<path class="st0" d="M468.08,56.67c13.82-2.53,23.61-12.57,23.61-26.52c0-16.2-13.5-27.15-30.75-27.15H408.3
		c1.5,4.95,2.4,10.05,2.4,22.5v79.65H432V57.3h12.15l32.4,47.85h24.6L468.08,56.67z M432,54.3V6h12.3c15.3,0,26.1,3.9,26.1,24.15
		c0,20.25-10.8,24.15-26.1,24.15H432z"/>
	<path class="st0" d="M540.75,27.9c-20.55,0-38.85,14.25-38.85,39.75c0,25.35,18.3,39.75,38.85,39.75c20.7,0,40.2-14.55,40.2-39.75
		C580.94,42.6,561.59,27.9,540.75,27.9z M540.89,104.4c-10.2,0-18.75-12.75-18.75-36.75s8.55-36.75,18.75-36.75
		c9.6,0,19.2,13.2,19.2,36.75C560.09,91.05,550.34,104.4,540.89,104.4z"/>
	<polygon class="st0" points="707.24,30.15 704.09,30.15 678.29,90.75 654.59,30.15 633.59,30.15 643.49,55.2 628.94,89.4 
		605.69,30.15 584.7,30.15 614.09,105.15 635.09,105.15 630.59,93.45 644.99,59.1 662.99,105.15 683.99,105.15 679.94,94.8 	"/>
</g>
</svg>
